<svg xmlns="http://www.w3.org/2000/svg" xmlns:xlink="http://www.w3.org/1999/xlink" style="display: none;">

    <symbol id="responsive" viewBox="0 0 501.551 501.551">
    <path style="fill:#40596B;" d="M484.833,41.796H20.898C9.404,41.796,0,51.2,0,62.694v321.829h501.551V58.514
        C501.551,49.11,494.237,41.796,484.833,41.796z"/>
    <path style="fill:#F2F2F2;" d="M0,384.522v39.706c0,11.494,9.404,20.898,20.898,20.898h459.755c11.494,0,20.898-9.404,20.898-20.898
        v-39.706H0z"/>
    <g>
        <circle style="fill:#CDD6E0;" cx="250.776" cy="414.824" r="11.494"/>
        <rect x="154.645" y="445.126" style="fill:#CDD6E0;" width="192.261" height="39.706"/>
    </g>
    <rect x="113.894" y="484.833" style="fill:#F2F2F2;" width="272.718" height="16.718"/>
    <rect x="154.645" y="445.126" style="fill:#ACB3BA;" width="192.261" height="15.673"/>
    <rect x="33.437" y="72.098" style="fill:#84DBFF;" width="434.678" height="282.122"/>
    <g>
        <polygon style="fill:#334A5E;" points="330.188,72.098 330.188,41.796 330.188,41.796 345.861,41.796 345.861,72.098 
            345.861,72.098 	"/>
        <polygon style="fill:#334A5E;" points="155.69,72.098 155.69,41.796 155.69,41.796 171.363,41.796 171.363,72.098 171.363,72.098 	
            "/>
    </g>
    <path style="fill:#40596B;" d="M317.649,0H183.902c-7.314,0-12.539,5.224-12.539,12.539v238.237c0,7.314,5.225,12.539,12.539,12.539
        h133.747c7.314,0,12.539-5.224,12.539-12.539V12.539C330.188,5.224,324.963,0,317.649,0z"/>
    <rect x="185.051" y="25.161" style="fill:#FFFFFF;" width="131.657" height="201.665"/>
    <g>
        <circle style="fill:#ACB3BA;" cx="250.776" cy="244.506" r="10.449"/>
        <path style="fill:#ACB3BA;" d="M268.539,9.404h-35.527c-2.09,0-3.135,1.045-3.135,3.135l0,0c0,2.09,1.045,3.135,3.135,3.135h35.527
            c2.09,0,3.135-1.045,3.135-3.135l0,0C271.673,10.449,270.629,9.404,268.539,9.404z"/>
    </g>
    <g>
        <rect x="195.396" y="40.751" style="fill:#FFD15C;" width="52.245" height="52.245"/>
        <rect x="253.91" y="40.751" style="fill:#FFD15C;" width="52.245" height="52.245"/>
    </g>
    <rect x="195.396" y="99.265" style="fill:#FF7058;" width="110.759" height="43.886"/>
    <g>
        <rect x="195.396" y="153.6" style="fill:#CDD6E0;" width="110.759" height="24.033"/>
        <rect x="195.396" y="191.216" style="fill:#CDD6E0;" width="110.759" height="24.033"/>
    </g>
    
    </symbol>

    <symbol id="design" viewBox="0 0 512 512">
    <path style="fill:#AAAAAA;" d="M447.717,244.846C435.922,159.521,368.094,91.693,282.77,79.899l4.571-33.076
        c100.069,13.832,179.62,93.382,193.452,193.453L447.717,244.846z"/>
    <g>
        <path style="fill:#D4D4D4;" d="M64.285,244.843l-33.077-4.571C45.04,140.207,124.589,60.656,224.654,46.822l4.572,33.076
            C143.908,91.695,76.08,159.523,64.285,244.843z"/>
        <rect x="67.779" y="44.678" style="fill:#D4D4D4;" width="159.165" height="33.391"/>
    </g>
    <rect x="285.05" y="44.678" style="fill:#AAAAAA;" width="159.165" height="33.391"/>
    <path style="fill:#80CDD8;" d="M45.754,105.891c-24.549,0-44.522-19.972-44.522-44.522s19.972-44.522,44.522-44.522
        s44.522,19.972,44.522,44.522S70.303,105.891,45.754,105.891z"/>
    <path style="fill:#5293A9;" d="M466.246,105.891c-24.549,0-44.522-19.972-44.522-44.522s19.972-44.522,44.522-44.522
        s44.522,19.972,44.522,44.522S490.795,105.891,466.246,105.891z"/>
    <path style="fill:#E68D2C;" d="M301.754,107.123h-91.508V15.614h91.508V107.123z"/>
    <path style="fill:#E06B34;" d="M301.754,107.123H256V15.614h45.754V107.123z"/>
    <path style="fill:#E68D2C;" d="M91.508,317.369H0v-91.508h91.508V317.369z"/>
    <path style="fill:#E06B34;" d="M512,317.369h-91.508v-91.508H512V317.369z"/>
    <polygon style="fill:#E68D2C;" points="173.447,432.279 147.404,496.386 256,496.386 364.596,496.386 338.553,432.279 
        338.553,406.588 173.403,406.588 "/>
    <polygon style="fill:#E06B34;" points="256,496.386 364.596,496.386 338.553,432.279 338.553,406.588 256,406.588 "/>
    <polygon style="fill:#A8EAEF;" points="256,156.846 122.427,337.838 173.447,432.279 338.553,432.279 389.573,337.838 "/>
    <g>
        <polygon style="fill:#80CDD8;" points="256,156.846 256,432.279 338.553,432.279 389.573,337.838 	"/>
        <polygon style="fill:#80CDD8;" points="244.929,318.041 267.071,318.041 267.071,171.848 256,156.846 244.929,171.848 	"/>
    </g>
    <polygon style="fill:#5293A9;" points="256,318.041 267.071,318.041 267.071,171.848 256,156.846 "/>
    <circle style="fill:#80CDD8;" cx="256" cy="318.609" r="34.275"/>
    <path style="fill:#5293A9;" d="M290.275,318.606c0,18.93-15.346,34.274-34.275,34.274v-68.548
        C274.93,284.333,290.275,299.677,290.275,318.606z"/>
    </symbol>

    <symbol id="settings" viewBox="0 0 444.196 444.196">
        <g>
            <g>
                <path style="fill:none;" d="M346.905,116.188c2.73-5.822,3.027-12.361,0.84-18.408c-3.441-9.508-12.541-15.896-22.643-15.896
                    c-2.783,0-5.539,0.486-8.191,1.445c-12.484,4.518-18.967,18.35-14.449,30.834c3.439,9.508,12.539,15.896,22.641,15.896
                    c2.783,0,5.539-0.488,8.193-1.447C339.343,126.422,344.177,122.01,346.905,116.188z"/>
                <path style="fill:none;" d="M164.308,264.797c-3.26,0-6.488,0.57-9.594,1.693c-7.082,2.564-12.744,7.732-15.939,14.553
                    c-3.197,6.82-3.545,14.477-0.982,21.561c4.029,11.137,14.688,18.617,26.52,18.617c3.26,0,6.488-0.568,9.594-1.693
                    c14.621-5.291,22.213-21.49,16.922-36.111C186.798,272.28,176.14,264.797,164.308,264.797z"/>
                <path style="fill:none;" d="M207.407,201.038c-13.627-6.385-28.102-9.623-43.021-9.623c-39.264,0-75.394,22.961-92.047,58.496
                    c-23.764,50.711-1.842,111.303,48.869,135.068c13.629,6.387,28.104,9.625,43.023,9.625c39.264,0,75.395-22.961,92.047-58.494
                    C280.042,285.395,258.12,224.803,207.407,201.038z M182.072,342.096c-5.732,2.074-11.707,3.125-17.76,3.125
                    c-21.904,0-41.631-13.844-49.088-34.451c-4.744-13.111-4.1-27.285,1.818-39.912c5.916-12.625,16.396-22.189,29.508-26.936
                    c5.73-2.072,11.705-3.125,17.758-3.125c21.904,0,41.633,13.846,49.088,34.453C223.189,302.315,209.136,332.301,182.072,342.096z"
                    />
                <path style="fill:#3D6889;" d="M164.308,240.797c-6.053,0-12.027,1.053-17.758,3.125c-13.111,4.746-23.592,14.311-29.508,26.936
                    c-5.918,12.627-6.563,26.801-1.818,39.912c7.457,20.607,27.184,34.451,49.088,34.451c6.053,0,12.027-1.051,17.76-3.125
                    c27.064-9.795,41.117-39.781,31.324-66.846C205.941,254.643,186.212,240.797,164.308,240.797z M173.905,319.528
                    c-3.105,1.125-6.334,1.693-9.594,1.693c-11.832,0-22.49-7.48-26.52-18.617c-2.563-7.084-2.215-14.74,0.982-21.561
                    c3.195-6.82,8.857-11.988,15.939-14.553c3.105-1.123,6.334-1.693,9.594-1.693c11.832,0,22.49,7.482,26.52,18.619
                    C196.118,298.038,188.527,314.237,173.905,319.528z"/>
                <path style="fill:#3D6889;" d="M304.044,287.366l-14.352-0.654c-0.438-8.445-1.721-16.797-3.816-24.926l13.535-4.896
                    c6.232-2.256,9.457-9.135,7.201-15.367c-2.254-6.232-9.133-9.453-15.367-7.201l-13.533,4.896
                    c-3.592-7.588-7.949-14.826-13.016-21.596l10.607-9.684c4.895-4.469,5.242-12.059,0.773-16.953
                    c-4.467-4.895-12.057-5.242-16.953-0.773l-10.586,9.662c-6.16-5.578-12.949-10.6-20.322-14.953l6.084-12.984
                    c2.813-6,0.229-13.146-5.771-15.959c-6.002-2.811-13.148-0.229-15.959,5.773l-6.084,12.982c-7.979-2.863-16.16-4.896-24.496-6.078
                    l0.65-14.287c0.303-6.619-4.82-12.23-11.441-12.533c-6.627-0.303-12.232,4.82-12.533,11.441l-0.652,14.322
                    c-8.496,0.436-16.848,1.721-24.938,3.818l-4.887-13.51c-2.254-6.232-9.133-9.455-15.365-7.203
                    c-6.232,2.254-9.457,9.135-7.203,15.367l4.91,13.572c-7.604,3.621-14.83,7.984-21.563,13.033l-9.73-10.662
                    c-4.467-4.895-12.057-5.242-16.953-0.773c-4.895,4.467-5.242,12.057-0.773,16.953l9.709,10.639
                    c-5.621,6.191-10.648,12.975-14.979,20.281l-13.006-6.096c-6.002-2.811-13.145-0.227-15.957,5.775
                    c-2.813,6-0.227,13.145,5.773,15.957l12.984,6.084c-2.881,8.065-4.887,16.268-6.051,24.498l-14.316-0.654
                    c-6.627-0.305-12.232,4.82-12.535,11.441c-0.303,6.621,4.82,12.232,11.441,12.533l14.35,0.654
                    c0.439,8.445,1.721,16.797,3.816,24.926l-13.535,4.898c-6.232,2.254-9.455,9.135-7.201,15.367c1.767,4.883,6.375,7.92,11.285,7.92
                    c1.355,0,2.734-0.232,4.082-0.719l13.535-4.898c3.59,7.588,7.949,14.826,13.016,21.596l-10.609,9.684
                    c-4.894,4.467-5.24,12.059-0.773,16.953c2.367,2.594,5.611,3.91,8.867,3.91c2.887,0,5.785-1.037,8.086-3.137l10.586-9.662
                    c6.16,5.578,12.949,10.6,20.324,14.953l-6.084,12.984c-2.813,6-0.229,13.145,5.773,15.957c1.646,0.771,3.379,1.137,5.084,1.137
                    c4.512,0,8.834-2.555,10.875-6.91l6.082-12.98c7.979,2.863,16.16,4.897,24.496,6.078l-0.65,14.285
                    c-0.301,6.621,4.82,12.232,11.441,12.533c0.186,0.01,0.371,0.014,0.555,0.014c6.377,0,11.686-5.02,11.979-11.455l0.652-14.32
                    c8.496-0.436,16.848-1.723,24.936-3.82l4.889,13.51c1.768,4.885,6.375,7.92,11.285,7.92c1.355,0,2.734-0.23,4.082-0.719
                    c6.232-2.256,9.457-9.135,7.201-15.367l-4.91-13.57c7.604-3.619,14.828-7.984,21.561-13.031l9.734,10.66
                    c2.367,2.594,5.609,3.91,8.865,3.91c2.889,0,5.785-1.037,8.088-3.139c4.895-4.469,5.238-12.059,0.772-16.953l-9.711-10.637
                    c5.621-6.191,10.65-12.975,14.98-20.281l13.004,6.096c1.647,0.772,3.379,1.137,5.084,1.137c4.51,0,8.832-2.555,10.873-6.91
                    c2.813-6,0.229-13.145-5.771-15.957l-12.986-6.086c2.881-8.065,4.887-16.266,6.051-24.494l14.318,0.652
                    c0.188,0.01,0.371,0.014,0.557,0.014c6.375,0,11.684-5.02,11.979-11.453C315.786,293.28,310.665,287.668,304.044,287.366z
                    M256.279,336.11c-16.652,35.533-52.783,58.494-92.047,58.494c-14.92,0-29.395-3.238-43.023-9.625
                    c-50.711-23.766-72.633-84.357-48.869-135.068c16.652-35.535,52.783-58.496,92.047-58.496c14.92,0,29.395,3.238,43.021,9.623
                    C258.12,224.803,280.042,285.395,256.279,336.11z"/>
                <path style="fill:#73D0F4;" d="M383.665,133.415c7.33-15.643,8.131-33.203,2.252-49.447
                    c-5.877-16.246-17.729-29.229-33.371-36.559c-8.678-4.068-17.895-6.131-27.393-6.131c-25.002,0-48.01,14.621-58.613,37.25
                    c-7.33,15.643-8.131,33.203-2.254,49.447c5.879,16.244,17.729,29.229,33.371,36.557c8.68,4.068,17.898,6.131,27.395,6.131
                    C350.056,170.663,373.062,156.042,383.665,133.415z M341.462,151.18c-5.279,1.91-10.783,2.879-16.359,2.879
                    c-20.176,0-38.344-12.752-45.209-31.73c-9.02-24.928,3.922-52.547,28.852-61.568c5.279-1.91,10.781-2.877,16.357-2.877
                    c20.176,0,38.344,12.752,45.211,31.732c4.369,12.074,3.773,25.129-1.676,36.758C363.189,138,353.536,146.811,341.462,151.18z"/>
                <path style="fill:#3D6889;" d="M370.314,89.616c-6.867-18.98-25.035-31.732-45.211-31.732c-5.576,0-11.078,0.967-16.357,2.877
                    c-24.93,9.021-37.871,36.641-28.852,61.568c6.865,18.979,25.033,31.73,45.209,31.73c5.576,0,11.08-0.969,16.359-2.879
                    c12.074-4.369,21.727-13.18,27.176-24.807C374.087,114.745,374.683,101.69,370.314,89.616z M302.462,114.163
                    c-4.518-12.484,1.965-26.316,14.449-30.834c2.652-0.959,5.408-1.445,8.191-1.445c10.102,0,19.201,6.389,22.643,15.896
                    c2.188,6.047,1.891,12.586-0.84,18.408c-2.728,5.822-7.563,10.234-13.609,12.424c-2.654,0.959-5.41,1.447-8.193,1.447
                    C315.001,130.059,305.902,123.67,302.462,114.163z"/>
                <path style="fill:#3D6889;" d="M419.622,98.266l-6.188-0.281c-0.689-7.484-2.324-14.93-4.949-22.184
                    c-2.623-7.254-6.131-14.022-10.389-20.213l4.57-4.172c4.895-4.469,5.242-12.059,0.773-16.953
                    c-4.467-4.894-12.057-5.242-16.953-0.773l-4.57,4.172c-5.779-4.805-12.201-8.912-19.186-12.186
                    c-6.978-3.269-14.217-5.586-21.641-6.949l0.281-6.18c0.303-6.621-4.82-12.232-11.441-12.535
                    c-6.603-0.296-12.23,4.82-12.533,11.441l-0.283,6.207c-15.359,1.412-29.92,6.816-42.338,15.379l-4.23-4.635
                    c-4.469-4.895-12.057-5.238-16.953-0.773c-4.895,4.469-5.24,12.059-0.773,16.953l4.213,4.613
                    c-4.824,5.762-8.957,12.174-12.225,19.146c-3.273,6.984-5.578,14.25-6.945,21.639l-6.184-0.281
                    c-6.633-0.313-12.232,4.822-12.535,11.441c-0.301,6.621,4.822,12.232,11.443,12.533l6.182,0.281
                    c0.689,7.484,2.326,14.93,4.949,22.184c2.625,7.254,6.133,14.021,10.391,20.213l-4.572,4.174
                    c-4.895,4.467-5.24,12.059-0.771,16.953c2.367,2.592,5.609,3.908,8.865,3.908c2.889,0,5.785-1.037,8.088-3.137l4.57-4.174
                    c5.779,4.805,12.201,8.912,19.185,12.186c6.979,3.27,14.217,5.586,21.643,6.949l-0.283,6.182
                    c-0.301,6.621,4.822,12.232,11.441,12.533c0.188,0.01,0.371,0.014,0.557,0.014c6.375,0,11.686-5.02,11.978-11.455l0.283-6.207
                    c15.359-1.412,29.92-6.816,42.336-15.379l4.232,4.635c2.367,2.594,5.609,3.91,8.865,3.91c2.889,0,5.787-1.037,8.088-3.139
                    c4.895-4.469,5.238-12.059,0.77-16.953l-4.209-4.611c4.822-5.76,8.955-12.172,12.223-19.145c3.271-6.984,5.578-14.25,6.945-21.639
                    l6.184,0.281c0.188,0.01,0.373,0.014,0.557,0.014c6.377,0,11.686-5.02,11.979-11.453
                    C431.364,104.18,426.241,98.569,419.622,98.266z M297.657,164.532c-15.643-7.328-27.492-20.313-33.371-36.557
                    c-5.877-16.244-5.076-33.805,2.254-49.447c10.604-22.629,33.611-37.25,58.613-37.25c9.498,0,18.715,2.063,27.393,6.131
                    c15.642,7.33,27.494,20.313,33.371,36.559c5.879,16.244,5.078,33.805-2.252,49.447c-10.603,22.627-33.609,37.248-58.613,37.248
                    C315.556,170.663,306.337,168.6,297.657,164.532z"/>
            </g>
        </g>
    </symbol>

    <symbol id="chart" viewBox="0 0 280.028 280.028">
    <g>
	<path style="fill:#E2574C;" d="M115.503,177.54L37.48,255.545c-3.588,3.605-3.588,9.416,0,13.004s9.407,3.588,12.995,0
		l78.023-78.005c3.597-3.605,3.597-9.416,0-13.004C124.91,173.943,119.09,173.943,115.503,177.54z M242.547,255.545l-78.023-78.005
		c-3.588-3.588-9.398-3.588-12.986,0s-3.588,9.398,0,13.004l78.023,78.005c3.588,3.588,9.398,3.588,12.986,0
		C246.144,264.961,246.144,259.15,242.547,255.545z"/>
	<g>
		<polygon style="fill:#CB4E44;" points="188.318,201.307 162.293,201.307 179.804,218.809 205.82,218.809 		"/>
		<polygon style="fill:#CB4E44;" points="74.216,218.809 100.224,218.809 117.734,201.307 91.726,201.307 		"/>
	</g>
	<path style="fill:#CB4E44;" d="M140.014,17.539c4.839,0,8.751,3.92,8.751,8.751v210.02c0,4.848-3.912,8.751-8.751,8.751
		s-8.751-3.903-8.751-8.751V26.29C131.263,21.459,135.174,17.539,140.014,17.539z"/>
	<path style="fill:#324D5B;" d="M17.502,8.788h245.024c9.661,0,17.502,7.832,17.502,17.502v166.266
		c0,9.661-7.841,17.502-17.502,17.502H17.502C7.841,210.058,0,202.217,0,192.556V26.29C0,16.62,7.841,8.788,17.502,8.788z"/>
	<path style="fill:#EBEBEB;" d="M26.253,26.29h227.522c4.839,0,8.751,3.92,8.751,8.751v148.765c0,4.848-3.912,8.751-8.751,8.751
		H26.253c-4.839,0-8.751-3.903-8.751-8.751V35.041C17.502,30.21,21.413,26.29,26.253,26.29z"/>
	<path style="fill:#E2574C;" d="M96.259,96.297H61.256v70.007h35.003V96.297z"/>
	<path style="fill:#3DB39E;" d="M157.515,61.293h-35.003v105.01h35.003V61.293z"/>
	<path style="fill:#26A6D1;" d="M218.771,78.795h-35.003v87.509h35.003V78.795z"/>
</g>
</symbol>

<symbol id="quote" viewBox="0 0 512 512"><path d="M464 256h-80v-64c0-35.3 28.7-64 64-64h8c13.3 0 24-10.7 24-24V56c0-13.3-10.7-24-24-24h-8c-88.4 0-160 71.6-160 160v240c0 26.5 21.5 48 48 48h128c26.5 0 48-21.5 48-48V304c0-26.5-21.5-48-48-48zm-288 0H96v-64c0-35.3 28.7-64 64-64h8c13.3 0 24-10.7 24-24V56c0-13.3-10.7-24-24-24h-8C71.6 32 0 103.6 0 192v240c0 26.5 21.5 48 48 48h128c26.5 0 48-21.5 48-48V304c0-26.5-21.5-48-48-48z"/></symbol>

</svg>
